<svg xmlns="http://www.w3.org/2000/svg" xmlns:xlink="http://www.w3.org/1999/xlink" id="processonSvg1000" viewBox="-20.0 25.0 659.0 857.0" width="659.0" height="857.0"><defs id="ProcessOnDefs1001"><marker id="ProcessOnMarker1011" markerUnits="userSpaceOnUse" orient="auto" markerWidth="16.23606797749979" markerHeight="10.550836550532098" viewBox="-1.0 -1.3763819204711736 16.23606797749979 10.550836550532098" refX="-1.0" refY="3.8990363547948754"><path id="ProcessOnPath1012" d="M12.0 3.8990363547948754L0.0 7.798072709589751V0.0Z" stroke="#323232" stroke-width="2.0" fill="#323232" transform="matrix(1.0,0.0,0.0,1.0,0.0,0.0)"/></marker><marker id="ProcessOnMarker1019" markerUnits="userSpaceOnUse" orient="auto" markerWidth="16.23606797749979" markerHeight="10.550836550532098" viewBox="-1.0 -1.3763819204711736 16.23606797749979 10.550836550532098" refX="-1.0" refY="3.8990363547948754"><path id="ProcessOnPath1020" d="M12.0 3.8990363547948754L0.0 7.798072709589751V0.0Z" stroke="#323232" stroke-width="2.0" fill="#323232" transform="matrix(1.0,0.0,0.0,1.0,0.0,0.0)"/></marker></defs><g id="ProcessOnG1002"><path id="ProcessOnPath1003" d="M-20.0 25.0H639.0V882.0H-20.0V25.0Z" fill="none"/><g id="ProcessOnG1004"><g id="ProcessOnG1005" transform="matrix(1.0,0.0,0.0,1.0,197.0,130.0)" opacity="1.0"><path id="ProcessOnPath1006" d="M0.0 0.0L100.0 0.0L100.0 32.0L0.0 32.0Z" stroke="#323232" stroke-width="2.0" stroke-dasharray="none" opacity="1.0" fill="#ffffff"/><g id="ProcessOnG1007" transform="matrix(1.0,0.0,0.0,1.0,10.0,7.875)"><text id="ProcessOnText1008" fill="#000000" font-weight="normal" font-style="normal" text-decoration="blink" font-family="微软雅黑" text-anchor="middle" font-size="13" x="40.0" y="13.325">Client</text></g></g><g id="ProcessOnG1009"><path id="ProcessOnPath1010" d="M247.0 162.0L247.0 512.0L247.0 512.0L247.0 846.7639320225002" stroke="#323232" stroke-width="2.0" stroke-dasharray="none" fill="none" marker-end="url(#ProcessOnMarker1011)"/></g><g id="ProcessOnG1013" transform="matrix(1.0,0.0,0.0,1.0,519.0,133.0)" opacity="1.0"><path id="ProcessOnPath1014" d="M0.0 0.0L100.0 0.0L100.0 32.0L0.0 32.0Z" stroke="#323232" stroke-width="2.0" stroke-dasharray="none" opacity="1.0" fill="#ffffff"/><g id="ProcessOnG1015" transform="matrix(1.0,0.0,0.0,1.0,10.0,7.875)"><text id="ProcessOnText1016" fill="#000000" font-weight="normal" font-style="normal" text-decoration="blink" font-family="微软雅黑" text-anchor="middle" font-size="13" x="40.0" y="13.325">Server</text></g></g><g id="ProcessOnG1017"><path id="ProcessOnPath1018" d="M569.0 165.0L569.0 503.0L569.0 503.0L569.0 825.7639320225002" stroke="#323232" stroke-width="2.0" stroke-dasharray="none" fill="none" marker-end="url(#ProcessOnMarker1019)"/></g><g id="ProcessOnG1021" transform="matrix(-0.9961946980917455,-0.08715574274765794,0.08715574274765794,-0.9961946980917455,561.952354470841,230.54459089027975)" opacity="1.0"><path id="ProcessOnPath1022" d="M0.0 10.0L10.0 0.0L10.0 6.6000000000000005L314.2089661901496 6.6000000000000005L314.2089661901496 13.4L10.0 13.4L10.0 20.0L0.0 10.0Z" stroke="#323232" stroke-width="2.0" stroke-dasharray="none" opacity="1.0" fill="#ffffff"/></g><g id="ProcessOnG1023" transform="matrix(1.0,0.0,0.0,1.0,0.0,45.0)" opacity="1.0"><path id="ProcessOnPath1024" d="M0.0 0.0L160.0 0.0L160.0 40.0L0.0 40.0Z" stroke="#323232" stroke-width="0.0" stroke-dasharray="none" opacity="1.0" fill="none"/><g id="ProcessOnG1025" transform="matrix(1.0,0.0,0.0,1.0,0.0,11.875)"><text id="ProcessOnText1026" fill="#000000" font-weight="normal" font-style="normal" text-decoration="blink" font-family="微软雅黑" text-anchor="middle" font-size="13" x="80.0" y="13.325">Vedio Room</text></g></g><g id="ProcessOnG1027" transform="matrix(1.0,0.0,0.0,1.0,316.0,165.0)" opacity="1.0"><path id="ProcessOnPath1028" d="M0.0 0.0L160.0 0.0L160.0 40.0L0.0 40.0Z" stroke="#323232" stroke-width="0.0" stroke-dasharray="none" opacity="1.0" fill="none"/><g id="ProcessOnG1029" transform="matrix(1.0,0.0,0.0,1.0,0.0,11.875)"><text id="ProcessOnText1030" fill="#000000" font-weight="normal" font-style="normal" text-decoration="blink" font-family="微软雅黑" text-anchor="middle" font-size="13" x="80.0" y="13.325">Creat</text></g></g><g id="ProcessOnG1031" transform="matrix(0.9961946980917455,-0.08715574274765832,0.08715574274765832,0.9961946980917455,243.92230101920265,252.91652253076657)" opacity="1.0"><path id="ProcessOnPath1032" d="M0.0 10.0L10.0 0.0L10.0 6.6000000000000005L313.2021563544449 6.6000000000000005L313.2021563544449 13.4L10.0 13.4L10.0 20.0L0.0 10.0Z" stroke="#323232" stroke-width="2.0" stroke-dasharray="none" opacity="1.0" fill="#ffffff"/></g><g id="ProcessOnG1033" transform="matrix(1.0,0.0,0.0,1.0,303.0,212.0)" opacity="1.0"><path id="ProcessOnPath1034" d="M0.0 0.0L160.0 0.0L160.0 40.0L0.0 40.0Z" stroke="#323232" stroke-width="0.0" stroke-dasharray="none" opacity="1.0" fill="none"/><g id="ProcessOnG1035" transform="matrix(1.0,0.0,0.0,1.0,0.0,11.875)"><text id="ProcessOnText1036" fill="#000000" font-weight="normal" font-style="normal" text-decoration="blink" font-family="微软雅黑" text-anchor="middle" font-size="13" x="80.0" y="13.325">Success</text></g></g><g id="ProcessOnG1037" transform="matrix(-0.9961946980917455,-0.08715574274765794,0.08715574274765794,-0.9961946980917455,564.952354470841,321.5445908902797)" opacity="1.0"><path id="ProcessOnPath1038" d="M0.0 10.0L10.0 0.0L10.0 6.6000000000000005L314.2089661901496 6.6000000000000005L314.2089661901496 13.4L10.0 13.4L10.0 20.0L0.0 10.0Z" stroke="#323232" stroke-width="2.0" stroke-dasharray="none" opacity="1.0" fill="#ffffff"/></g><g id="ProcessOnG1039" transform="matrix(1.0,0.0,0.0,1.0,344.0,265.0)" opacity="1.0"><path id="ProcessOnPath1040" d="M0.0 0.0L160.0 0.0L160.0 40.0L0.0 40.0Z" stroke="#323232" stroke-width="0.0" stroke-dasharray="none" opacity="1.0" fill="none"/><g id="ProcessOnG1041" transform="matrix(1.0,0.0,0.0,1.0,0.0,11.875)"><text id="ProcessOnText1042" fill="#000000" font-weight="normal" font-style="normal" text-decoration="blink" font-family="微软雅黑" text-anchor="middle" font-size="13" x="80.0" y="13.325">Attach</text></g></g><g id="ProcessOnG1043" transform="matrix(0.9961946980917455,-0.08715574274765832,0.08715574274765832,0.9961946980917455,243.92230101920265,351.91652253076654)" opacity="1.0"><path id="ProcessOnPath1044" d="M0.0 10.0L10.0 0.0L10.0 6.6000000000000005L313.2021563544449 6.6000000000000005L313.2021563544449 13.4L10.0 13.4L10.0 20.0L0.0 10.0Z" stroke="#323232" stroke-width="2.0" stroke-dasharray="none" opacity="1.0" fill="#ffffff"/></g><g id="ProcessOnG1045" transform="matrix(1.0,0.0,0.0,1.0,276.0,307.8900859962242)" opacity="1.0"><path id="ProcessOnPath1046" d="M0.0 0.0L160.0 0.0L160.0 40.0L0.0 40.0Z" stroke="#323232" stroke-width="0.0" stroke-dasharray="none" opacity="1.0" fill="none"/><g id="ProcessOnG1047" transform="matrix(1.0,0.0,0.0,1.0,0.0,11.875)"><text id="ProcessOnText1048" fill="#000000" font-weight="normal" font-style="normal" text-decoration="blink" font-family="微软雅黑" text-anchor="middle" font-size="13" x="80.0" y="13.325">Success</text></g></g><g id="ProcessOnG1049" transform="matrix(-0.9961946980917455,-0.08715574274765794,0.08715574274765794,-0.9961946980917455,564.952354470841,423.54459089027966)" opacity="1.0"><path id="ProcessOnPath1050" d="M0.0 10.0L10.0 0.0L10.0 6.6000000000000005L314.2089661901496 6.6000000000000005L314.2089661901496 13.4L10.0 13.4L10.0 20.0L0.0 10.0Z" stroke="#323232" stroke-width="2.0" stroke-dasharray="none" opacity="1.0" fill="#ffffff"/></g><g id="ProcessOnG1051" transform="matrix(1.0,0.0,0.0,1.0,344.0000000000001,367.0)" opacity="1.0"><path id="ProcessOnPath1052" d="M0.0 0.0L160.0 0.0L160.0 40.0L0.0 40.0Z" stroke="#323232" stroke-width="0.0" stroke-dasharray="none" opacity="1.0" fill="none"/><g id="ProcessOnG1053" transform="matrix(1.0,0.0,0.0,1.0,0.0,11.875)"><text id="ProcessOnText1054" fill="#000000" font-weight="normal" font-style="normal" text-decoration="blink" font-family="微软雅黑" text-anchor="middle" font-size="13" x="80.0" y="13.325">message</text></g></g><g id="ProcessOnG1055" transform="matrix(0.9961946980917455,-0.08715574274765832,0.08715574274765832,0.9961946980917455,252.44053756948327,450.80660852699066)" opacity="1.0"><path id="ProcessOnPath1056" d="M0.0 10.0L10.0 0.0L10.0 6.6000000000000005L313.2021563544449 6.6000000000000005L313.2021563544449 13.4L10.0 13.4L10.0 20.0L0.0 10.0Z" stroke="#323232" stroke-width="2.0" stroke-dasharray="none" opacity="1.0" fill="#ffffff"/></g><g id="ProcessOnG1057" transform="matrix(1.0,0.0,0.0,1.0,311.5182365502806,409.8900859962241)" opacity="1.0"><path id="ProcessOnPath1058" d="M0.0 0.0L160.0 0.0L160.0 40.0L0.0 40.0Z" stroke="#323232" stroke-width="0.0" stroke-dasharray="none" opacity="1.0" fill="none"/><g id="ProcessOnG1059" transform="matrix(1.0,0.0,0.0,1.0,0.0,11.875)"><text id="ProcessOnText1060" fill="#000000" font-weight="normal" font-style="normal" text-decoration="blink" font-family="微软雅黑" text-anchor="middle" font-size="13" x="80.0" y="13.325">Ack</text></g></g><g id="ProcessOnG1061" transform="matrix(0.9961946980917455,-0.08715574274765832,0.08715574274765832,0.9961946980917455,252.44053756948333,502.91652253076643)" opacity="1.0"><path id="ProcessOnPath1062" d="M0.0 10.0L10.0 0.0L10.0 6.6000000000000005L313.2021563544449 6.6000000000000005L313.2021563544449 13.4L10.0 13.4L10.0 20.0L0.0 10.0Z" stroke="#323232" stroke-width="2.0" stroke-dasharray="none" opacity="1.0" fill="#ffffff"/></g><g id="ProcessOnG1063" transform="matrix(1.0,0.0,0.0,1.0,311.5182365502807,461.9999999999999)" opacity="1.0"><path id="ProcessOnPath1064" d="M0.0 0.0L160.0 0.0L160.0 40.0L0.0 40.0Z" stroke="#323232" stroke-width="0.0" stroke-dasharray="none" opacity="1.0" fill="none"/><g id="ProcessOnG1065" transform="matrix(1.0,0.0,0.0,1.0,0.0,11.875)"><text id="ProcessOnText1066" fill="#000000" font-weight="normal" font-style="normal" text-decoration="blink" font-family="微软雅黑" text-anchor="middle" font-size="13" x="80.0" y="13.325">Event</text></g></g><g id="ProcessOnG1067" transform="matrix(-0.9961946980917455,-0.08715574274765794,0.08715574274765794,-0.9961946980917455,564.9523544708411,585.5445908902798)" opacity="1.0"><path id="ProcessOnPath1068" d="M0.0 10.0L10.0 0.0L10.0 6.6000000000000005L314.2089661901496 6.6000000000000005L314.2089661901496 13.4L10.0 13.4L10.0 20.0L0.0 10.0Z" stroke="#323232" stroke-width="2.0" stroke-dasharray="none" opacity="1.0" fill="#ffffff"/></g><g id="ProcessOnG1069" transform="matrix(1.0,0.0,0.0,1.0,344.0000000000002,529.0)" opacity="1.0"><path id="ProcessOnPath1070" d="M0.0 0.0L160.0 0.0L160.0 40.0L0.0 40.0Z" stroke="#323232" stroke-width="0.0" stroke-dasharray="none" opacity="1.0" fill="none"/><g id="ProcessOnG1071" transform="matrix(1.0,0.0,0.0,1.0,0.0,11.875)"><text id="ProcessOnText1072" fill="#000000" font-weight="normal" font-style="normal" text-decoration="blink" font-family="微软雅黑" text-anchor="middle" font-size="13" x="80.0" y="13.325">trickle(send candidate)</text></g></g><g id="ProcessOnG1073" transform="matrix(0.9961946980917455,-0.08715574274765832,0.08715574274765832,0.9961946980917455,249.44053756948327,607.9165225307664)" opacity="1.0"><path id="ProcessOnPath1074" d="M0.0 10.0L10.0 0.0L10.0 6.6000000000000005L313.2021563544449 6.6000000000000005L313.2021563544449 13.4L10.0 13.4L10.0 20.0L0.0 10.0Z" stroke="#323232" stroke-width="2.0" stroke-dasharray="none" opacity="1.0" fill="#ffffff"/></g><g id="ProcessOnG1075" transform="matrix(1.0,0.0,0.0,1.0,308.5182365502806,566.9999999999999)" opacity="1.0"><path id="ProcessOnPath1076" d="M0.0 0.0L160.0 0.0L160.0 40.0L0.0 40.0Z" stroke="#323232" stroke-width="0.0" stroke-dasharray="none" opacity="1.0" fill="none"/><g id="ProcessOnG1077" transform="matrix(1.0,0.0,0.0,1.0,0.0,11.875)"><text id="ProcessOnText1078" fill="#000000" font-weight="normal" font-style="normal" text-decoration="blink" font-family="微软雅黑" text-anchor="middle" font-size="13" x="80.0" y="13.325">Ack</text></g></g><g id="ProcessOnG1079" transform="matrix(1.0,0.0,0.0,1.0,311.5182365502807,633.0)" opacity="1.0"><path id="ProcessOnPath1080" d="M0.0 0.0L160.0 0.0L160.0 40.0L0.0 40.0Z" stroke="#323232" stroke-width="0.0" stroke-dasharray="none" opacity="1.0" fill="none"/><g id="ProcessOnG1081" transform="matrix(1.0,0.0,0.0,1.0,0.0,11.875)"><text id="ProcessOnText1082" fill="#000000" font-weight="normal" font-style="normal" text-decoration="blink" font-family="微软雅黑" text-anchor="middle" font-size="13" x="80.0" y="13.325">......</text></g></g><g id="ProcessOnG1083" transform="matrix(0.9961946980917455,-0.08715574274765832,0.08715574274765832,0.9961946980917455,251.44795338569733,754.1917154129587)" opacity="1.0"><path id="ProcessOnPath1084" d="M0.0 10.0L10.0 0.0L10.0 6.6000000000000005L313.2021563544449 6.6000000000000005L313.2021563544449 13.4L10.0 13.4L10.0 20.0L0.0 10.0Z" stroke="#323232" stroke-width="2.0" stroke-dasharray="none" opacity="1.0" fill="#ffffff"/></g><g id="ProcessOnG1085" transform="matrix(1.0,0.0,0.0,1.0,297.0,713.0)" opacity="1.0"><path id="ProcessOnPath1086" d="M0.0 0.0L160.0 0.0L160.0 40.0L0.0 40.0Z" stroke="#323232" stroke-width="0.0" stroke-dasharray="none" opacity="1.0" fill="none"/><g id="ProcessOnG1087" transform="matrix(1.0,0.0,0.0,1.0,0.0,11.875)"><text id="ProcessOnText1088" fill="#000000" font-weight="normal" font-style="normal" text-decoration="blink" font-family="微软雅黑" text-anchor="middle" font-size="13" x="80.0" y="13.325">Ack</text></g></g><g id="ProcessOnG1089" transform="matrix(-0.9961946980917455,-0.08715574274765794,0.08715574274765794,-0.9961946980917455,563.9597702870551,734.6545048940555)" opacity="1.0"><path id="ProcessOnPath1090" d="M0.0 10.0L10.0 0.0L10.0 6.6000000000000005L314.2089661901496 6.6000000000000005L314.2089661901496 13.4L10.0 13.4L10.0 20.0L0.0 10.0Z" stroke="#323232" stroke-width="2.0" stroke-dasharray="none" opacity="1.0" fill="#ffffff"/></g><g id="ProcessOnG1091" transform="matrix(1.0,0.0,0.0,1.0,344.0000000000002,673.0)" opacity="1.0"><path id="ProcessOnPath1092" d="M0.0 0.0L160.0 0.0L160.0 40.0L0.0 40.0Z" stroke="#323232" stroke-width="0.0" stroke-dasharray="none" opacity="1.0" fill="none"/><g id="ProcessOnG1093" transform="matrix(1.0,0.0,0.0,1.0,0.0,11.875)"><text id="ProcessOnText1094" fill="#000000" font-weight="normal" font-style="normal" text-decoration="blink" font-family="微软雅黑" text-anchor="middle" font-size="13" x="80.0" y="13.325">trickle(complete)</text></g></g><g id="ProcessOnG1095" transform="matrix(1.0,0.0,0.0,1.0,251.2201915136991,789.0)" opacity="1.0"><path id="ProcessOnPath1096" d="M0.0 10.0L10.0 0.0L10.0 6.6000000000000005L304.20896619014957 6.6000000000000005L304.20896619014957 0.0L314.20896619014957 10.0L304.20896619014957 20.0L304.20896619014957 13.4L10.0 13.4L10.0 20.0L0.0 10.0Z" stroke="#323232" stroke-width="2.0" stroke-dasharray="none" opacity="1.0" fill="#ffffff"/></g><g id="ProcessOnG1097" transform="matrix(1.0,0.0,0.0,1.0,308.5182365502806,804.0)" opacity="1.0"><path id="ProcessOnPath1098" d="M0.0 0.0L160.0 0.0L160.0 40.0L0.0 40.0Z" stroke="#323232" stroke-width="0.0" stroke-dasharray="none" opacity="1.0" fill="none"/><g id="ProcessOnG1099" transform="matrix(1.0,0.0,0.0,1.0,0.0,11.875)"><text id="ProcessOnText1100" fill="#000000" font-weight="normal" font-style="normal" text-decoration="blink" font-family="微软雅黑" text-anchor="middle" font-size="13" x="80.0" y="13.325">Stream</text></g></g></g></g></svg>